# xmcd CD database file
#
# Track frame offsets:
#	150
#	15468
#	32002
#	46762
#	60675
#	77475
#	91950
#	108675
#	119775
#	135975
#	149850
#	165112
#	182775
#	194325
#	208162
#	227400
#	240075
#	257550
#
# Disc length: 3656 seconds
#
# Revision: 0
# Processed by: cddbd v1.5.2PL0 Copyright (c) Steve Scherf et al.
# Submitted via: CDex 1.51
#
DISCID=eb0e4612
DTITLE=Diverse  - Country Night - SWF4  CD 02
DYEAR=1900
DGENRE=Country
TTITLE0=Willkommen im deutschen Wunderland - Gunter Gabriel
TTITLE1=Irgendwie wirds schon gehn - Tom Astor
TTITLE2=Irgendwo heut Nacht - Dagmar
TTITLE3=Sommer 68 - Rose and Vorberg
TTITLE4=Ich wr dieser Junge - Jonny Hill
TTITLE5=Eileen - Linda
TTITLE6=Ich muß weiterziehen - Rubber Duck
TTITLE7=Herz und Verstand - Hufnagel
TTITLE8=Du fehlst mir so - Gudrun Lange and Kactus
TTITLE9=Wilde Pferde wilde Wölfe wildes Land - Truck Stop
TTITLE10=Wie eine Feder im Wind - Frank Baum
TTITLE11=Silberstreif am Horizont - Mark Bender
TTITLE12=Spaß am Leben - Country Rose
TTITLE13=Die Malerin - Ecke and Co
TTITLE14=Auch ohne ein Wort - L. A.
TTITLE15=Der letzte Ami in Deutschland - Daniel T Coates
TTITLE16=Freiheit - Ramona
TTITLE17=Danke - Western Union
EXTD=
EXTT0=
EXTT1=
EXTT2=
EXTT3=
EXTT4=
EXTT5=
EXTT6=
EXTT7=
EXTT8=
EXTT9=
EXTT10=
EXTT11=
EXTT12=
EXTT13=
EXTT14=
EXTT15=
EXTT16=
EXTT17=
PLAYORDER=
